<?xml version="1.0" standalone="no"?>
<!DOCTYPE svg PUBLIC "-//W3C//DTD SVG 20010904//EN"
 "http://www.w3.org/TR/2001/REC-SVG-20010904/DTD/svg10.dtd">
<svg version="1.0" xmlns="http://www.w3.org/2000/svg"
 width="512.000000pt" height="512.000000pt" viewBox="0 0 512.000000 512.000000"
 preserveAspectRatio="xMidYMid meet">

<g transform="translate(0.000000,512.000000) scale(0.100000,-0.100000)"
fill="#000000" stroke="none">
<path d="M2415 5114 c-646 -50 -1186 -287 -1629 -714 -427 -412 -691 -945
-767 -1545 -18 -145 -16 -473 5 -625 75 -553 313 -1047 696 -1444 412 -427
945 -691 1545 -767 145 -18 473 -16 625 5 583 79 1105 342 1510 762 390 404
629 910 701 1479 18 145 16 473 -5 625 -101 748 -514 1404 -1141 1813 -323
210 -709 350 -1092 396 -94 12 -373 21 -448 15z m590 -827 c134 -36 213 -77
289 -148 114 -106 166 -245 166 -442 0 -67 -6 -133 -16 -170 -32 -124 -105
-232 -202 -299 l-43 -30 71 -34 c79 -38 173 -120 219 -193 16 -25 42 -82 57
-126 26 -74 28 -92 27 -230 0 -130 -3 -161 -25 -232 -60 -198 -200 -340 -421
-427 -183 -72 -339 -86 -989 -86 l-518 0 0 1226 0 1225 643 -3 642 -4 100 -27z
m-1043 -2777 c86 -26 146 -79 184 -162 27 -58 29 -72 29 -178 0 -89 -4 -126
-19 -165 -25 -65 -94 -137 -159 -166 -47 -22 -68 -24 -239 -27 l-188 -4 0 355
c0 194 3 357 7 360 3 4 77 7 164 7 129 0 169 -4 221 -20z m848 -30 l0 -50
-195 0 -195 0 0 -105 0 -105 170 0 170 0 0 -55 0 -55 -170 0 -170 0 0 -100 0
-100 195 0 195 0 0 -50 0 -50 -250 0 -250 0 0 360 0 360 250 0 250 0 0 -50z
m281 -259 c60 -167 110 -305 111 -307 2 -1 53 137 113 307 l110 309 58 0 c31
0 57 -4 57 -8 0 -4 -58 -165 -129 -357 l-130 -350 -78 -3 -78 -2 -130 351
c-71 193 -132 356 -134 361 -1 5 24 8 59 6 l62 -3 109 -304z"/>
<path d="M2120 3590 l0 -272 283 5 c200 3 298 9 338 19 149 38 229 138 229
283 0 77 -16 119 -60 158 -71 65 -105 71 -467 75 l-323 3 0 -271z"/>
<path d="M2120 2619 l0 -291 328 5 c344 4 402 11 491 56 45 24 98 81 119 130
19 45 21 154 3 205 -19 54 -82 120 -139 144 -80 35 -164 42 -489 42 l-313 0 0
-291z"/>
<path d="M1690 1170 l0 -260 91 0 c122 0 173 14 220 61 51 51 74 127 66 225
-6 79 -24 123 -70 172 -41 43 -109 62 -219 62 l-88 0 0 -260z"/>
</g>
</svg>
